<svg width="255" height="149" viewBox="0 0 255 149" fill="none" xmlns="http://www.w3.org/2000/svg">
<rect width="255" height="149" fill="#B7CCD8"/>
<path d="M148.378 81.7543C146.991 80.4902 144.751 80.4902 143.363 81.7543L135.184 89.253L119.927 75.2663C118.539 74.0021 116.299 74.0021 114.912 75.2663L90.017 98.0885C88.642 99.3743 88.664 101.438 90.0665 102.699C90.7189 103.285 91.2245 103.973 92.1383 103.985H163.267C165.231 103.995 167.201 102.19 167.212 100.39C167.218 99.5136 166.838 98.6727 166.16 98.0559L148.378 81.7543Z" fill="white"/>
<path d="M141.591 67.5758C147.549 67.5758 152.379 62.7459 152.379 56.7879C152.379 50.8299 147.549 46 141.591 46C135.633 46 130.803 50.8299 130.803 56.7879C130.803 62.7459 135.633 67.5758 141.591 67.5758Z" fill="white"/>
</svg>
