<svg width="269" height="149" viewBox="0 0 269 149" fill="none" xmlns="http://www.w3.org/2000/svg">
<rect width="269" height="149" fill="#B7CCD8"/>
<path d="M155.378 81.7543C153.991 80.4902 151.751 80.4902 150.363 81.7543L142.184 89.253L126.927 75.2663C125.539 74.0021 123.299 74.0021 121.912 75.2663L97.017 98.0885C95.642 99.3743 95.664 101.438 97.0665 102.699C97.7189 103.285 98.2245 103.973 99.1383 103.985H170.267C172.231 103.995 174.201 102.19 174.212 100.39C174.218 99.5136 173.838 98.6727 173.16 98.0559L155.378 81.7543Z" fill="white"/>
<path d="M148.591 67.5758C154.549 67.5758 159.379 62.7459 159.379 56.7879C159.379 50.8299 154.549 46 148.591 46C142.633 46 137.803 50.8299 137.803 56.7879C137.803 62.7459 142.633 67.5758 148.591 67.5758Z" fill="white"/>
</svg>
