<svg width="150" height="127" viewBox="0 0 150 127" fill="none" xmlns="http://www.w3.org/2000/svg">
<rect width="149.333" height="127" transform="translate(0.666626)" fill="#B7CCD8"/>
<path d="M96.0445 70.7543C94.6573 69.4902 92.4172 69.4902 91.03 70.7543L82.8502 78.253L67.5931 64.2663C66.2059 63.0021 63.9658 63.0021 62.5786 64.2663L37.6836 87.0885C36.3086 88.3743 36.3306 90.4385 37.7332 91.699C38.3856 92.2854 38.8911 92.973 39.8049 92.9848H110.933C112.897 92.9952 114.867 91.1904 114.879 89.3897C114.884 88.5136 114.505 87.6727 113.827 87.0559L96.0445 70.7543Z" fill="white"/>
<path d="M89.2576 56.5758C95.2156 56.5758 100.045 51.7459 100.045 45.7879C100.045 39.8299 95.2156 35 89.2576 35C83.2996 35 78.4697 39.8299 78.4697 45.7879C78.4697 51.7459 83.2996 56.5758 89.2576 56.5758Z" fill="white"/>
</svg>
